<?xml version="1.0" encoding="utf-8"?>
<!-- Generator: Adobe Illustrator 24.1.1, SVG Export Plug-In . SVG Version: 6.00 Build 0)  -->
<svg version="1.2" baseProfile="tiny" id="_x31__x26_1_IONOS"
	 xmlns="http://www.w3.org/2000/svg" xmlns:xlink="http://www.w3.org/1999/xlink" x="0px" y="0px" viewBox="0 0 269.29 85.04"
	 xml:space="preserve">
<g>
	<g id="IONOS_1_">
		<path fill="#FFFFFF" d="M242.51,79.58c-1.26,0-2.52-0.13-3.75-0.38c-5.36-1.1-10.02-4.43-12.8-9.15l-0.07-0.13
			c-1.39-2.77-0.47-6.03,2.12-7.59c0.86-0.52,1.84-0.79,2.85-0.79c2.03,0,3.91,1.1,4.91,2.88c0.06,0.1,0.12,0.21,0.19,0.32l0.6,0.81
			l0.8,0.81c1,0.88,2.28,1.5,3.66,1.77c2.2,0.42,4.56-0.11,6.31-1.44c1.88-1.37,2.99-3.39,3.17-5.71c0.18-2.28-0.64-4.57-2.19-6.12
			c0,0-18.44-19-18.84-19.52l-0.91-1.32c-2.19-3.47-3.14-7.38-2.77-11.34c0.18-2.72,1.01-5.44,2.39-7.84l0.8-1.4
			c0.14-0.21,2.55-3.62,5.57-5.05l0.91-0.65c3.84-2.11,8.43-2.8,12.64-1.92c5.22,1.12,9.73,4.38,12.37,8.94
			c0.76,1.27,0.97,2.79,0.59,4.26c-0.39,1.47-1.34,2.7-2.68,3.46c-0.82,0.48-1.77,0.75-2.75,0.75c-2.02,0-3.93-1.13-4.88-2.87
			c-1.08-1.82-2.84-3.07-4.93-3.49c-2.05-0.41-4.31,0.09-5.98,1.34c-1.63,1.22-2.66,3.14-2.83,5.28c-0.16,2.13,0.55,4.17,2.02,5.72
			l17.32,17.86c3.78,3.9,5.74,9.28,5.37,14.76c-0.49,5.55-3.25,10.59-7.58,13.83C250.79,78.19,246.66,79.58,242.51,79.58z"/>
		<path fill="#FFFFFF" d="M187.69,79.57c-10.27,0-18.63-8.36-18.63-18.63V24.09c0-10.27,8.36-18.63,18.63-18.63
			c10.27,0,18.63,8.36,18.63,18.63v36.85C206.32,71.22,197.96,79.57,187.69,79.57z M187.69,16.71c-4.07,0-7.38,3.31-7.38,7.38v36.85
			c0,4.14,3.24,7.38,7.38,7.38c4.07,0,7.38-3.31,7.38-7.38V24.09C195.07,20.09,191.69,16.71,187.69,16.71z"/>
		<path fill="#FFFFFF" d="M115.33,43.47v30.48c0,3.15-2.47,5.62-5.62,5.62c-3.15,0-5.62-2.47-5.62-5.62V20.13L115.33,43.47z
			 M145.68,64.93V11.08c0-3.15-2.47-5.62-5.62-5.62c-3.15,0-5.63,2.47-5.63,5.62v30.5L145.68,64.93z M114.8,8.65l-0.05-0.11
			c-1-1.85-3-3.05-5.09-3.05c-0.39,0-0.78,0.04-1.13,0.12c-2.61,0.52-4.44,2.77-4.44,5.47v1.28l30.93,64.12
			c1.01,1.87,2.97,3.09,5,3.09c0.45,0,0.9-0.06,1.29-0.17c2.58-0.54,4.39-2.79,4.39-5.46v-1.21
			C145.68,72.73,115.63,10.36,114.8,8.65z"/>
		<path fill="#FFFFFF" d="M61.92,79.57c-4.97,0-9.65-1.94-13.17-5.46c-3.52-3.52-5.46-8.2-5.46-13.17V24.09
			c0-4.97,1.94-9.64,5.46-13.17c3.52-3.52,8.2-5.46,13.17-5.46c4.97,0,9.64,1.94,13.17,5.46c3.52,3.52,5.46,8.2,5.46,13.17v36.85
			c0,4.97-1.94,9.64-5.46,13.17S66.89,79.57,61.92,79.57z M61.92,16.71c-1.97,0-3.82,0.77-5.22,2.16c-1.4,1.39-2.16,3.25-2.16,5.22
			v36.85c0,2.01,0.76,3.87,2.14,5.25c1.38,1.38,3.24,2.14,5.25,2.14c1.97,0,3.82-0.77,5.22-2.16c1.4-1.4,2.17-3.25,2.17-5.22V24.09
			c0-1.93-0.78-3.77-2.19-5.19C65.69,17.49,63.85,16.71,61.92,16.71z"/>
		<path fill="#FFFFFF" d="M13.63,79.54c-3.43,0-6.11-2.72-6.11-6.19V11.61l0.01-0.12c0.04-3.36,2.75-6.03,6.15-6.03
			c2.79,0,5.16,1.81,5.89,4.51c0.03,0.1,0.07,0.26,0.11,0.43l0.04,0.27c0.05,0.33,0.08,0.66,0.08,0.98c0,0,0.01,61,0,61.7
			C19.79,76.83,17.09,79.54,13.63,79.54z"/>
	</g>
</g>
</svg>
