<?xml version="1.0" encoding="utf-8"?>
<!-- Generator: Adobe Illustrator 24.1.1, SVG Export Plug-In . SVG Version: 6.00 Build 0)  -->
<svg version="1.2" baseProfile="tiny" id="Layer_1" xmlns="http://www.w3.org/2000/svg" xmlns:xlink="http://www.w3.org/1999/xlink"
	 x="0px" y="0px" viewBox="0 0 1112.61 300" xml:space="preserve">
<path fill="#10AA50" d="M134.44,120.34C119.13,52.8,87.22,34.82,79.08,22.11c-3.36-5.6-6.33-11.42-8.9-17.42
	c-0.43,6-1.22,9.78-6.32,14.33C53.62,28.15,10.13,63.59,6.47,140.33c-3.41,71.55,52.6,115.67,60,120.23c5.69,2.8,12.62,0.06,16-2.51
	c27-18.53,63.89-67.93,52-137.71"/>
<path fill="#B8C4C2" d="M72.5,222.46c-1.41,17.71-2.42,28-6,38.12c0,0,2.35,16.86,4,34.72h5.84c1.39-12.58,3.52-25.06,6.37-37.39
	C75.15,254.19,72.79,238,72.5,222.46z"/>
<path fill="#12924F" d="M82.7,257.92L82.7,257.92c-7.64-3.53-9.85-20.06-10.19-35.46c1.89-25.4,2.44-50.89,1.65-76.35
	c-0.4-13.36,0.19-123.74-3.29-139.9c2.38,5.47,5.12,10.78,8.21,15.89c8.14,12.72,40.06,30.7,55.36,98.24
	C146.36,190,109.67,239.27,82.7,257.92z"/>
<path fill="#FFFFFF" d="M1089.7,233.5c-9.16,0-16.59-7.43-16.59-16.59c0-9.16,7.43-16.59,16.59-16.59c9.07,0,16.46,7.29,16.59,16.36
	c0.24,9.04-6.89,16.57-15.93,16.82C1090.14,233.5,1089.92,233.5,1089.7,233.5 M1089.7,201.82c-8.34-0.06-15.14,6.66-15.2,15
	c-0.06,8.34,6.66,15.14,15,15.2c8.34,0.06,15.14-6.66,15.2-15c0-0.02,0-0.04,0-0.06c0.16-8.2-6.36-14.98-14.56-15.14
	C1090,201.82,1089.85,201.82,1089.7,201.82 M1093.7,227.4l-4.28-9.23h-3.45v9.23h-2.51v-21h6.19c4.61,0,6.53,2,6.53,5.87
	c0,3.08-1.45,5-4.15,5.59l4.42,9.51L1093.7,227.4z M1086.07,216h3.63c2.94,0,4.06-1,4.06-3.68s-1.07-3.59-4.38-3.59h-3.31V216z"/>
<path fill="#FFFFFF" d="M842.79,218.38c4.49,3.59,13.46,5.07,21.37,5.07c10.25,0,20.3-1.9,30.12-10.77c10-9.09,16.88-23,16.88-45.21
	c0-21.34-8.12-38.66-24.78-48.8c-9.4-5.91-21.58-8.24-35.47-8.24c-4,0-8.12,0.21-10.46,1.27c-0.96,0.76-1.64,1.81-1.93,3
	c-0.42,3.8-0.42,32.74-0.42,49.85c0,17.54,0,42,0.42,45c0.22,2.54,1.5,7,4.27,8.87 M800.15,100.93c3.63,0,17.43,0.63,23.85,0.63
	c12,0,20.29-0.63,42.72-0.63c18.8,0,34.62,5.07,45.93,14.78c13.68,11.84,21,28.31,21,48.38c0,28.52-13,45-26.07,54.29
	c-13,9.72-29.91,15.21-54,15.21c-12.82,0-34.83-0.42-53.2-0.63H800c-0.86-1.69,1.57-8.28,3.07-8.45c5-0.56,6.32-0.76,8.62-1.71
	c3.88-1.59,4.79-3.57,5.22-10.54c0.64-13.1,0.43-28.73,0.43-46.48c0-12.67,0.21-37.39-0.21-45.21c-0.65-6.54-3.41-8.23-9-9.5
	c-3.96-0.84-7.97-1.48-12-1.9c-0.42-1.27,2.86-7,3.93-8.24"/>
<path fill="#FFFFFF" d="M986.6,111.65c-0.85,0.21-1.92,2.33-1.92,3.38c-0.22,7.61-0.43,27.46-0.43,41.19
	c0.11,0.54,0.53,0.95,1.07,1.06c2.77,0.21,9.61,0.43,15.38,0.43c8.12,0,12.82-1.06,15.38-2.33c6.84-3.38,10-10.78,10-18.8
	c0-18.38-12.82-25.35-31.83-25.35c-2.57-0.03-5.14,0.11-7.69,0.42 M1035.06,196.15c0-18.59-13.68-29.15-38.68-29.15
	c-1.06,0-9-0.21-10.89,0.21c-0.64,0.21-1.28,0.63-1.28,1.06c0,13.31-0.22,34.64,0.43,43.09c0.43,3.59,3,8.66,6.19,10.14
	c3.42,1.9,11.11,2.32,16.45,2.32C1022.02,223.82,1035.06,215.59,1035.06,196.15 M948,101.3c1.93,0,7.61,0.63,22.14,0.63
	c13.67,0,24.78-0.42,38-0.42c16.45,0,39.09,5.92,39.09,30.42c0,12-8.54,21.76-19.65,26.41c-0.64,0.21-0.64,0.63,0,0.84
	c15.81,4,29.69,13.73,29.69,32.32c0,18.17-11.32,29.58-27.77,36.76c-10,4.44-22.43,5.91-35,5.91c-9.61,0-35.37-1-49.69-0.84
	c-1.5-0.63,1.37-7.4,2.65-8.45c3.28-0.1,6.54-0.61,9.69-1.52c5.12-1.26,5.73-2.91,6.37-10.52c0.43-6.55,0.43-30,0.43-46.69
	c0-22.82,0.22-38.23,0-45.84c-0.21-5.91-2.35-7.82-6.41-8.87c-3.2-0.64-8.54-1.27-12.81-1.9C943.66,108.48,946.95,102.14,948,101.3"
	/>
<path fill="#FFFFFF" d="M181.75,233.5c-0.55-1.35-0.77-2.82-0.65-4.27c-0.05-0.99,0.18-1.98,0.65-2.85c2.76-0.4,5.5-0.96,8.2-1.67
	c3.78-0.94,5.2-3,5.42-7.82c0.62-11.39,0.66-32.76,0.44-47.78v-0.44c0-1.62,0-3.82-2-5.37c-3.52-2.21-7.33-3.89-11.33-5
	c-1.79-0.53-2.78-1.47-2.73-2.57s1.18-2.4,3.51-2.86c6.19-0.63,22.41-4.5,28.78-7.44c0.66,0.85,0.96,1.93,0.85,3
	c0,0.66-0.1,1.36-0.17,2.08c-0.18,2.12-0.38,4.53-0.38,6.93c0.12,0.86,0.91,1.47,1.78,1.36c0.34-0.05,0.66-0.2,0.9-0.45
	c12.13-9.51,23-12.9,28.57-12.9c9.17,0,16.31,4.38,21.84,13.4c0.26,0.44,0.73,0.72,1.24,0.73c0.46,0,0.9-0.24,1.16-0.62
	c11.15-8.46,22.2-13.51,29.6-13.51c17.48,0,27.93,13.09,27.93,35c0,6.3-0.06,14.29-0.12,21.74c-0.05,6.54-0.1,12.67-0.1,16.91
	c0,1,1.38,3.88,3.45,4.45c2.56,1.25,6.25,1.89,10.92,2.69h0.18c0.35,1.26-0.39,6.15-1.1,7.15c-1.16,0-2.76-0.1-4.76-0.2
	c-3.63-0.18-8.61-0.43-14.4-0.43c-11.62,0-17.69,0.22-23.49,0.6c-0.44-1.45-0.59-6.13-0.06-7.11c2.4-0.38,4.78-0.89,7.12-1.55
	c3.7-1.22,4.77-2.9,5-7.81c0.09-3.49,0.76-34.24-0.43-41.54c-1.1-7.57-6.8-16.43-19.27-16.43c-4.63,0-12.1,1.93-19.22,7.33
	c-0.44,0.5-0.69,1.14-0.7,1.81v0.15c0.84,3.94,0.84,8.54,0.84,15.49c0,4,0,8.17-0.05,12.34c-0.05,8.48-0.09,16.48,0.05,22.53
	c0,4.12,2.49,5.11,4.5,5.9c1.09,0.24,1.95,0.45,2.82,0.65c1.67,0.41,3.41,0.83,6,1.24c0.38,1.76,0.35,3.58-0.1,5.32
	c-0.11,0.65-0.36,1.27-0.75,1.81c-6.46-0.22-13.09-0.41-22.66-0.41c-2.9,0-7.63,0.12-11.81,0.23c-3.39,0.09-6.59,0.18-8.41,0.19
	c-0.49-1.16-0.71-2.42-0.64-3.68c-0.1-1.19,0.13-2.38,0.67-3.44l2.57-0.47c2.24-0.4,4.18-0.74,6-1.2c3.16-1,4.35-2.72,4.58-6.75
	c0.62-9.4,1.1-36.49-0.23-43.27c-2.26-10.88-8.45-16.4-18.41-16.4c-5.83,0-13.2,2.81-19.22,7.32c-1.17,1.14-1.81,2.72-1.77,4.35
	c0,3.23,0,7.07,0,11.19c0,13.6-0.09,30.53,0.24,37.85c0.2,2.26,1,4.94,5.23,5.92c0.93,0.27,2.53,0.53,4.39,0.84
	c1.07,0.18,2.24,0.37,3.45,0.59c0.38,2.39,0.19,4.85-0.57,7.15c-1.86,0-4.15-0.12-6.77-0.23c-4-0.18-9-0.4-14.65-0.4
	c-6.68,0-11.33,0.22-15.06,0.4c-2.51,0.12-4.68,0.22-6.85,0.23"/>
<path fill="#FFFFFF" d="M396.2,154.49c-3.61-0.07-7.16,0.92-10.2,2.87c-7.42,4.51-11.2,13.52-11.2,26.76
	c0,24.78,12.41,42.09,30.18,42.09c4.76,0.15,9.41-1.49,13.02-4.61c5.46-4.45,8.36-13.55,8.36-26.29c0-24.41-12.13-40.82-30.18-40.82
	 M399.6,235.4c-32.1,0-43.53-23.55-43.53-45.58c0-15.39,6.29-27.42,18.7-35.77c8.69-5.38,18.67-8.33,28.89-8.54
	c24.49,0,41.6,17.61,41.6,42.84c0,17.14-6.83,30.68-19.76,39.14C419.29,231.29,408.5,235.4,399.6,235.4"/>
<path fill="#FFFFFF" d="M723,154.49c-3.62-0.08-7.17,0.92-10.22,2.87c-7.42,4.51-11.2,13.52-11.2,26.76
	c0,24.78,12.41,42.09,30.18,42.09c4.78,0.16,9.44-1.48,13.06-4.61c5.46-4.45,8.35-13.55,8.35-26.29
	C753.17,170.9,741.05,154.49,723,154.49 M726.42,235.4c-32.1,0-43.53-23.55-43.53-45.57c0-15.41,6.29-27.43,18.71-35.78
	c8.69-5.38,18.66-8.33,28.88-8.54c24.49,0,41.6,17.62,41.6,42.83c0,17.16-6.83,30.69-19.76,39.14
	C746.11,231.29,735.32,235.4,726.42,235.4"/>
<path fill="#FFFFFF" d="M614.92,153.65c-9.89,0-16.29,7.81-16.29,19.9s5.51,26.46,21,26.46c2.66,0,7.48-1.18,9.87-3.81
	c3.6-3.31,6-10.15,6-17.37c0-15.77-7.68-25.18-20.53-25.18 M613.69,237.09c-2.79-0.03-5.55,0.66-8,2c-7.83,5-11.46,10-11.46,15.81
	c0,5.44,2.11,9.77,6.65,13.61c5.5,4.66,12.92,6.93,22.67,6.93c19.19,0,27.79-10.32,27.79-20.54c0-7.12-3.57-11.89-10.92-14.59
	c-5.66-2.07-15.12-3.21-26.7-3.21 M615,286.1c-11.52,0-19.82-2.43-26.91-7.89c-6.9-5.32-10-13.22-10-18.68
	c0.07-3.52,1.42-6.89,3.78-9.5c2-2.28,6.65-6.55,17.4-13.94c0.34-0.14,0.56-0.48,0.56-0.85c0.01-0.42-0.28-0.78-0.68-0.88
	c-8.85-3.39-11.52-9-12.33-12c0-0.11,0-0.28-0.09-0.47c-0.25-1.18-0.49-2.3,1.12-3.45c1.24-0.88,3.22-2.06,5.34-3.31
	c2.99-1.66,5.86-3.52,8.59-5.59c0.53-0.57,0.5-1.46-0.07-1.99c-0.09-0.08-0.18-0.15-0.29-0.21c-13.1-4.4-19.7-14.13-19.7-29
	c-0.08-9.41,4.44-18.27,12.1-23.73c5.27-4.17,18.5-9.18,27.07-9.18h0.5c8.81,0.21,13.78,2.06,20.66,4.6
	c3.91,1.42,8.06,2.07,12.22,1.94c7.29,0,10.48-2.31,13.22-5c0.44,1.21,0.68,2.49,0.7,3.78c0.17,3.07-0.67,6.12-2.38,8.68
	c-1.49,2.07-5,3.57-8.21,3.57c-0.33,0-0.65,0-1-0.05c-1.69-0.12-3.36-0.4-5-0.83l-0.82,0.29c-0.26,0.38-0.09,0.8,0.12,1.34
	c0.05,0.11,0.09,0.22,0.12,0.33c0.59,2.67,0.98,5.38,1.19,8.1c0,15.55-6.13,22.32-12.76,27.34c-6.41,4.81-14.02,7.76-22,8.52l0,0
	c-0.17,0-1,0.07-2.56,0.21c-1,0.09-2.3,0.21-2.49,0.21h-0.19c-1.44,0.4-5.2,2.19-5.2,5.52c0,2.76,1.7,6.19,9.83,6.81l5.26,0.37
	c10.72,0.75,24.11,1.68,30.41,3.81c8.57,3.01,14.24,11.19,14.07,20.27c0,13.95-9.92,27.07-26.53,35.09
	c-7.83,3.74-16.41,5.67-25.09,5.63"/>
<path fill="#FFFFFF" d="M565.86,226.06c-4.7-0.63-8.13-1.27-12.18-3.17c-0.79-0.82-1.32-1.87-1.5-3c-0.43-6.55-0.43-25.56-0.43-38
	c0-10.15-1.7-19-6-25.35c-5.13-7.19-12.39-11.41-21.79-11.41c-8.33,0-19.44,5.7-28.62,13.52c-0.22,0.21-1.63,1.55-1.6-0.53
	s0.35-6.3,0.55-9c0.18-1.45-0.34-2.91-1.4-3.92c-6,3-22.83,7-29.06,7.61c-4.54,0.88-5.69,5.25-0.84,6.76h0.07
	c3.88,1.07,7.59,2.7,11,4.84c1.92,1.48,1.71,3.59,1.71,5.28c0.21,14.15,0.21,35.91-0.43,47.74c-0.21,4.65-1.5,6.34-4.92,7.19
	l0.32-0.11c-2.6,0.65-5.25,1.15-7.91,1.48c-1.07,1.05-1.07,7.18,0,8.45c2.14,0,13-0.63,22-0.63c12.38,0,18.79,0.63,22,0.63
	c1.29-1.48,1.71-7.18,0.86-8.45c-2.96-0.13-5.9-0.56-8.77-1.27c-3.41-0.84-4.27-2.54-4.48-6.33c-0.42-9.94-0.42-31.06-0.42-45.43
	c0-4,1.06-5.91,2.34-7c4.27-3.8,11.33-6.33,17.52-6.33c6,0,10,1.9,13,4.43c3.49,3.05,5.68,7.32,6.12,11.94
	c0.85,8,0.63,24.09,0.63,38c0,7.61-0.63,9.52-3.41,10.36c-1.28,0.63-4.7,1.27-8.76,1.69c-1.28,1.27-0.86,7.18,0,8.45
	c5.55,0,12-0.63,21.36-0.63c11.75,0,19.23,0.63,22.22,0.63c1.28-1.48,1.71-7,0.86-8.45"/>
</svg>
